<svg version="1" xmlns="http://www.w3.org/2000/svg" width="666.667" height="666.667" viewBox="0 0 500.000000 500.000000"><path d="M349 .7C304.7 3.1 262.5 19 224.6 47.4c-26.2 19.7-43.7 39.9-60 69.4-39.5 71.7-35.7 151 10.7 225.7 5.7 9.1 20.4 29.1 23.6 31.9 2 1.9 2.1 2.7 2.1 29.8V432h53.9l-3 4.5c-7.9 11.7-14.6 30.7-17.4 49-2.4 16.1-3.8 14.5 12.4 14.5h13.8l1.2-9.3c1.5-11.9 7.5-29.8 14.8-44 17.9-35.1 37.2-52.9 73.8-68.4l8-3.4-11 .5c-12.7.5-24.1 3.4-37.2 9.6-8.2 3.8-23.9 13.5-27.9 17.1-1.9 1.8-3.7 1.9-28.5 1.7l-26.4-.3-.3-13-.3-12.9 49.2-49.2 49.2-49.3 5.7 2.9c6.8 3.4 17.6 6.7 24.8 7.4l5.2.5V262l-2.7-.5c-16.8-3.4-27.6-11.3-32.9-24-5.8-13.9-1.7-31.7 9.6-41.7 5.5-4.9 14.6-9.4 22-10.9l5.5-1.1-.3-12.6c-.2-7-.8-13.1-1.3-13.6-.5-.6-4.1-.5-9.1.2-6.1.9-10.5 2.3-17.3 5.6l-9 4.4-11-10.6C289.2 132.6 234 78.1 234 77.6c0-1.1 16.2-13.8 24.2-19 22.8-14.9 53.1-25.3 83-28.5 5.4-.6 12-1.1 14.8-1.1h5V0l-3.2.2c-1.8.1-5.8.3-8.8.5zm-47.6 152.4c13.5 11.2 24.6 21 24.6 21.8 0 .7-2.4 4.6-5.4 8.5-5.8 7.6-11.7 18.6-13.5 25.1-2.5 9.3-.5 24.1 5.5 40.1 1.9 5.1 3.4 9.8 3.4 10.6 0 .7-12.9 14.2-28.7 30l-28.8 28.7-17.2-4.8c-9.9-2.7-18.2-5.6-19.4-6.7-6.1-5.5-6.2-12.5-.4-21l3.7-5.3-2.6-7.7c-3.4-10.1-3.3-13.1.5-17.6 2.9-3.6 3-4 2-9-1-5.8-.6-7 5-14.5 4.4-5.8 3.6-7.7-5.6-13.7-8.5-5.5-10.2-7.7-8.7-11.1.6-1.3 6.6-6.5 13.4-11.7 6.8-5.1 16-12.3 20.4-15.8l8.1-6.5.6-5.7c.3-3.7 1.9-8.5 4.5-14 2.2-4.6 5-10.8 6.2-13.8 2.3-5.9 3.6-7.2 6.2-6.6.9.2 12.7 9.5 26.2 20.7z"/></svg>