<svg xmlns="http://www.w3.org/2000/svg" viewBox="0 0 408.58 32.28"><defs><style>.cls-1{fill:#4f91f3;}</style></defs><title>wave</title><g id="Calque_2" data-name="Calque 2"><path class="cls-1" d="M28.17,63.62V95.9H164.35V63.62s-7.17.92-11.35,4.1a20,20,0,0,1-19,2.2,16.16,16.16,0,0,1-3.68-2.2,16.62,16.62,0,0,0-4.45-2.52,19.17,19.17,0,0,0-14,0,14.48,14.48,0,0,0-4.21,2.5A14.05,14.05,0,0,1,104,70a19.1,19.1,0,0,1-15.38,0,15.5,15.5,0,0,1-3.72-2.26,15.5,15.5,0,0,0-3.72-2.26,20,20,0,0,0-19,2.26,19,19,0,0,1-5.91,2.87,18.85,18.85,0,0,1-12.66-.34,13.18,13.18,0,0,1-4.13-2.53C35.42,63.87,28.17,63.62,28.17,63.62Z" transform="translate(-28.16 -63.62)"/><path class="cls-1" d="M164.36,63.62V95.9h136.2V63.62s-7.18.92-11.36,4.1a20,20,0,0,1-19,2.2,16,16,0,0,1-3.68-2.2,16.77,16.77,0,0,0-4.45-2.52,19.2,19.2,0,0,0-14.05,0,14.43,14.43,0,0,0-4.2,2.5A14.11,14.11,0,0,1,240.2,70a19.1,19.1,0,0,1-15.38,0,15.7,15.7,0,0,1-3.72-2.26,15.44,15.44,0,0,0-3.71-2.26,20,20,0,0,0-19,2.26,19.08,19.08,0,0,1-5.91,2.87,18.84,18.84,0,0,1-12.66-.34,13.07,13.07,0,0,1-4.13-2.53C171.61,63.87,164.36,63.62,164.36,63.62Z" transform="translate(-28.16 -63.62)"/><path class="cls-1" d="M300.56,63.62V95.9H436.74V63.62s-7.17.92-11.35,4.1a20,20,0,0,1-19,2.2,16.16,16.16,0,0,1-3.68-2.2,16.62,16.62,0,0,0-4.45-2.52,19.17,19.17,0,0,0-14,0,14.48,14.48,0,0,0-4.21,2.5A14.05,14.05,0,0,1,376.4,70,19.1,19.1,0,0,1,361,70a15.5,15.5,0,0,1-3.72-2.26,15.5,15.5,0,0,0-3.72-2.26,20,20,0,0,0-19,2.26A20.33,20.33,0,0,1,316,70.25a13.18,13.18,0,0,1-4.13-2.53C307.81,63.87,300.56,63.62,300.56,63.62Z" transform="translate(-28.16 -63.62)"/></g></svg>